<?xml version="1.0" encoding="UTF-8"?>
<svg id="Camada_1" xmlns="http://www.w3.org/2000/svg" version="1.1" viewBox="0 0 500 432.18">
  <!-- Generator: Adobe Illustrator 30.2.1, SVG Export Plug-In . SVG Version: 2.1.1 Build 1)  -->
  <defs>
    <style>
      .st0 {
        fill: none;
      }

      .st1 {
        fill: #17374e;
      }
    </style>
  </defs>
  <rect class="st0" width="500" height="432.18"/>
  <g>
    <path class="st1" d="M244.48,143.4l-26.99-26.99-58.61,58.61c-2.48,2.48-3,6.3-1.28,9.35l92.4,163.89-40.18-170.2,34.67-34.67Z"/>
    <polygon class="st1" points="211.98 110.9 184.99 83.91 90.83 178.07 250 348.27 144.81 178.07 211.98 110.9"/>
    <polygon class="st1" points="315.01 83.91 288.02 110.9 355.19 178.07 250 348.27 409.17 178.07 315.01 83.91"/>
    <rect class="st1" x="230.92" y="91.81" width="38.17" height="38.17" transform="translate(-5.19 209.26) rotate(-45)"/>
    <path class="st1" d="M341.12,175.03l-58.61-58.62-26.99,26.99,34.67,34.67-40.18,170.2,92.4-163.89c1.72-3.05,1.2-6.87-1.28-9.35Z"/>
    <path class="st1" d="M278.68,177.6l-28.68-28.68-28.68,28.68c-1.82,1.82-2.63,4.43-2.15,6.96l30.83,163.71,30.83-163.71c.48-2.53-.33-5.14-2.15-6.96Z"/>
  </g>
</svg>