<?xml version="1.0" encoding="UTF-8"?>
<svg id="Camada_1" xmlns="http://www.w3.org/2000/svg" version="1.1" viewBox="0 0 1111.6 195.76">
  <!-- Generator: Adobe Illustrator 30.2.1, SVG Export Plug-In . SVG Version: 2.1.1 Build 1)  -->
  <defs>
    <style>
      .st0 {
        fill: none;
      }

      .st1 {
        fill: #17374e;
      }
    </style>
  </defs>
  <g>
    <path class="st1" d="M50.94,53.51c3.6,0,6.19.22,7.75.66,1.56.44,2.53,1.27,2.92,2.49.39,1.22.58,3.1.58,5.63v70.47c0,2.44-.2,4.29-.58,5.56-.39,1.27-1.37,2.12-2.92,2.56-1.56.44-4.14.66-7.75.66v4.24h38.3v-4.24c-4.19,0-7.26-.22-9.21-.66-1.95-.44-3.17-1.29-3.65-2.56-.49-1.27-.73-3.12-.73-5.56v-32.16h17.4c3.8,0,6.58.39,8.33,1.17,1.75.78,2.97,2.07,3.65,3.87.68,1.8,1.27,4.22,1.75,7.24h3.36v-30.26h-3.36c-.49,3.02-1.07,5.43-1.75,7.24-.68,1.8-1.9,3.1-3.65,3.87-1.75.78-4.53,1.17-8.33,1.17h-17.4v-35.38c0-2.34.34-3.8,1.02-4.39.68-.58,2.14-.88,4.39-.88h12.57c5.46,0,9.58.51,12.35,1.53,2.78,1.02,4.82,2.83,6.14,5.41,1.32,2.58,2.36,6.26,3.14,11.04h3.8v-22.95H50.94v4.24Z"/>
    <path class="st1" d="M195.45,134.13c-.93-2.39-1.68-5.24-2.27-8.55l-.88-5.41c-.68-4.58-1.66-8.33-2.92-11.26-1.27-2.92-2.97-5.26-5.12-7.02-2.14-1.75-4.92-3.12-8.33-4.09v-.29c4.09-.97,7.7-2.49,10.82-4.53,3.12-2.05,5.56-4.73,7.31-8.04,1.75-3.31,2.63-7.26,2.63-11.84,0-5.36-1.24-9.8-3.73-13.3s-6.02-6.14-10.6-7.89c-4.58-1.75-10.04-2.63-16.37-2.63h-39.33v4.24c3.41,0,5.92.2,7.53.58,1.61.39,2.63,1.19,3.07,2.41.44,1.22.66,3,.66,5.34v71.49c0,2.24-.22,3.95-.66,5.12s-1.44,1.97-3,2.41c-1.56.44-4.09.66-7.6.66v4.24h36.7v-4.24c-3.61,0-6.26-.19-7.97-.58-1.71-.39-2.8-1.17-3.29-2.34-.49-1.17-.73-2.92-.73-5.26v-32.89h8.92c5.17,0,9.01,1.1,11.55,3.29,2.53,2.19,4.24,5.73,5.12,10.6l3.65,17.98c.68,3.41,1.51,6.19,2.49,8.33,0,.02.02.04.03.06,1.42,3.11,4.58,5.05,7.99,5.05h14.35v-4.24c-2.54,0-4.61-.63-6.21-1.9-1.61-1.27-2.88-3.09-3.8-5.48ZM160.44,95.17h-9.06v-35.38c0-1.85.51-3.22,1.53-4.09,1.02-.88,3.48-1.32,7.38-1.32,7.41,0,12.91,1.63,16.52,4.9,3.6,3.27,5.41,8.46,5.41,15.57s-1.78,12.16-5.34,15.42c-3.56,3.27-9.04,4.9-16.45,4.9Z"/>
    <path class="st1" d="M225.86,139.84c-.44-1.12-.37-2.61.22-4.46l9.33-26.17h32.36l9.18,25.73c.68,1.85.78,3.41.29,4.68-.49,1.27-1.85,1.9-4.09,1.9h-5.41v4.24h33.48v-4.24c-2.34,0-4.19-.19-5.56-.58-1.37-.39-2.41-1.17-3.14-2.34-.73-1.17-1.49-2.87-2.27-5.12l-30.41-84.21h-8.33l-30.99,83.19c-.78,2.24-1.56,4.05-2.34,5.41-.78,1.37-1.85,2.32-3.22,2.85-1.37.54-3.36.8-5.99.8v4.24h26.02v-4.24h-5.41c-2.05,0-3.29-.56-3.73-1.68ZM251.81,64.47l14.19,39.77h-28.81l14.18-39.77h.44Z"/>
    <path class="st1" d="M399.03,49.27h-29.82v4.24h5.7c4.97,0,7.46,2.34,7.46,7.02v63.6h-.29l-49.42-74.85h-24.56v4.24c3.51,0,6.07.2,7.68.58,1.61.39,2.63,1.17,3.07,2.34.44,1.17.66,2.97.66,5.41v72.08c0,5.07-2.29,7.6-6.87,7.6h-4.39v4.24h29.97v-4.24h-5.85c-2.63,0-4.51-.58-5.63-1.75-1.12-1.17-1.68-3.12-1.68-5.85V63.59h.29l55.41,83.04h7.16V60.52c0-4.68,2.24-7.02,6.72-7.02h4.39v-4.24Z"/>
    <path class="st1" d="M483.24,129.02c-1.37,2.39-3.12,4.61-5.26,6.65-2.15,2.05-4.85,3.71-8.11,4.97-3.27,1.27-7.29,1.9-12.06,1.9-5.85,0-10.84-1.29-14.99-3.87-4.14-2.58-7.51-6.04-10.09-10.38-2.58-4.34-4.46-9.19-5.63-14.55-1.17-5.36-1.75-10.82-1.75-16.37,0-3.51.29-7.28.88-11.33.58-4.04,1.58-8.04,3-11.99,1.41-3.95,3.34-7.55,5.77-10.82,2.44-3.26,5.51-5.87,9.21-7.82,3.7-1.95,8.19-2.92,13.45-2.92,4.87,0,8.99.73,12.35,2.19,3.36,1.46,6.12,3.36,8.26,5.7,2.14,2.34,3.82,4.85,5.04,7.53,1.22,2.68,2.12,5.24,2.7,7.68h3.8l-1.46-26.32h-3.8l-.58,1.61c-.2.49-.56.95-1.1,1.39-.54.44-1.34.66-2.41.66-1.27,0-2.85-.46-4.75-1.39-1.9-.93-4.36-1.83-7.38-2.7-3.02-.88-6.87-1.32-11.55-1.32-9.94,0-18.42,2.05-25.44,6.14-7.02,4.09-12.38,9.97-16.08,17.62-3.71,7.65-5.56,16.79-5.56,27.41,0,9.94,1.75,18.57,5.26,25.88,3.51,7.31,8.7,12.96,15.57,16.96,6.87,4,15.23,5.99,25.07,5.99,5.94,0,10.94-.78,14.99-2.34,4.04-1.56,7.38-3.56,10.01-5.99,2.63-2.43,4.73-4.99,6.29-7.68,1.56-2.68,2.78-5.14,3.65-7.38l-3.8-1.9c-.98,2.15-2.14,4.41-3.51,6.8Z"/>
    <path class="st1" d="M515.11,138.45c-.39,1.27-1.37,2.1-2.92,2.49-1.56.39-4.14.58-7.75.58v4.24h71.2l1.75-25.15h-3.8c-1.27,5.56-2.83,9.8-4.68,12.72-1.85,2.92-4.51,4.92-7.97,5.99-3.46,1.07-8.11,1.61-13.96,1.61-5.17,0-9.02-.29-11.55-.88-2.54-.58-4.22-1.68-5.04-3.29-.83-1.61-1.24-4.02-1.24-7.24v-31.29h16.52c3.8,0,6.55.39,8.26,1.17,1.7.78,2.9,2.05,3.58,3.8.68,1.75,1.27,4.14,1.75,7.16h3.66v-29.82h-3.66c-.49,3.02-1.07,5.41-1.75,7.16-.68,1.75-1.88,3.02-3.58,3.8-1.71.78-4.46,1.17-8.26,1.17h-16.52v-33.19c0-2.24.32-3.68.95-4.31.63-.63,2.07-.95,4.31-.95h12.72c5.36,0,9.43.54,12.21,1.61,2.78,1.07,4.8,2.95,6.07,5.63,1.27,2.68,2.29,6.41,3.07,11.18h3.95v-23.39h-67.98v4.24c3.6,0,6.19.2,7.75.58,1.56.39,2.53,1.22,2.92,2.49.39,1.27.58,3.17.58,5.7v70.47c0,2.54-.2,4.44-.58,5.7Z"/>
    <path class="st1" d="M650.13,131.36c1.51-3.46,2.27-7.33,2.27-11.62,0-5.65-1.19-10.28-3.58-13.89-2.39-3.6-5.48-6.58-9.28-8.92-3.8-2.34-7.85-4.39-12.13-6.14l-6.87-2.92c-3.41-1.46-6.39-3.02-8.92-4.68-2.54-1.66-4.48-3.6-5.85-5.85-1.37-2.24-2.05-5.02-2.05-8.33,0-5.65,1.61-9.82,4.82-12.5,3.22-2.68,7.31-4.02,12.28-4.02,4.48,0,8.21.95,11.18,2.85,2.97,1.9,5.34,4.46,7.09,7.68,1.75,3.22,2.92,6.82,3.51,10.82h3.8l-1.46-25.88h-3.36c-.1.98-.34,1.83-.73,2.56-.39.73-1.02,1.1-1.9,1.1-1.07,0-2.29-.34-3.65-1.02-1.37-.68-3.19-1.36-5.48-2.05-2.29-.68-5.43-1.02-9.43-1.02-5.46,0-10.43.9-14.91,2.7-4.48,1.8-8.07,4.56-10.75,8.26-2.68,3.71-4.02,8.43-4.02,14.18,0,5.17,1.12,9.5,3.36,13.01,2.24,3.51,5.24,6.46,8.99,8.85,3.75,2.39,7.92,4.56,12.5,6.51l6.58,2.78c5.56,2.44,9.77,5.14,12.65,8.11,2.87,2.97,4.31,6.85,4.31,11.62,0,3.41-.76,6.58-2.27,9.5-1.51,2.92-3.73,5.24-6.65,6.94-2.92,1.71-6.53,2.56-10.82,2.56-3.8,0-7.19-.71-10.16-2.12-2.97-1.41-5.56-3.29-7.75-5.63-2.19-2.34-3.95-4.99-5.26-7.97-1.32-2.97-2.22-6.02-2.7-9.14h-3.8l1.75,29.09h3.65c.19-.88.53-1.68,1.02-2.41.49-.73,1.27-1.1,2.34-1.1,1.17,0,2.56.34,4.17,1.02,1.61.68,3.78,1.39,6.51,2.12,2.73.73,6.24,1.1,10.53,1.1,4.97,0,9.48-.64,13.52-1.9,4.04-1.27,7.5-3.09,10.38-5.48,2.87-2.39,5.07-5.31,6.58-8.77Z"/>
    <path class="st1" d="M666.87,98.68c0,9.94,1.75,18.57,5.26,25.88,3.51,7.31,8.7,12.96,15.57,16.96,6.87,4,15.23,5.99,25.07,5.99,5.94,0,10.94-.78,14.99-2.34,4.04-1.56,7.38-3.56,10.01-5.99,2.63-2.43,4.73-4.99,6.29-7.68,1.56-2.68,2.78-5.14,3.65-7.38l-3.8-1.9c-.98,2.15-2.15,4.41-3.51,6.8-1.37,2.39-3.12,4.61-5.26,6.65-2.14,2.05-4.85,3.71-8.11,4.97-3.27,1.27-7.29,1.9-12.06,1.9-5.85,0-10.84-1.29-14.99-3.87-4.14-2.58-7.51-6.04-10.09-10.38-2.58-4.34-4.46-9.19-5.63-14.55-1.17-5.36-1.75-10.82-1.75-16.37,0-3.51.29-7.28.88-11.33.58-4.04,1.58-8.04,3-11.99,1.41-3.95,3.34-7.55,5.77-10.82,2.44-3.26,5.51-5.87,9.21-7.82,3.7-1.95,8.19-2.92,13.45-2.92,4.87,0,8.99.73,12.35,2.19,3.36,1.46,6.12,3.36,8.26,5.7,2.14,2.34,3.82,4.85,5.04,7.53,1.22,2.68,2.12,5.24,2.7,7.68h3.8l-1.46-26.32h-3.8l-.58,1.61c-.2.49-.56.95-1.1,1.39-.54.44-1.34.66-2.41.66-1.27,0-2.85-.46-4.75-1.39-1.9-.93-4.36-1.83-7.38-2.7-3.02-.88-6.87-1.32-11.55-1.32-9.94,0-18.42,2.05-25.44,6.14-7.02,4.09-12.38,9.97-16.08,17.62-3.71,7.65-5.56,16.79-5.56,27.41Z"/>
    <path class="st1" d="M822.13,53.51c3.6,0,6.19.22,7.75.66,1.56.44,2.53,1.24,2.92,2.41.39,1.17.58,2.92.58,5.26v30.85h-47.08v-30.85c0-2.34.19-4.09.58-5.26.39-1.17,1.39-1.97,3-2.41,1.61-.44,4.17-.66,7.68-.66v-4.24h-35.96v4.24c3.6,0,6.19.22,7.75.66,1.56.44,2.53,1.24,2.92,2.41.39,1.17.58,2.92.58,5.26v71.49c0,2.34-.2,4.09-.58,5.26-.39,1.17-1.37,1.95-2.92,2.34-1.56.39-4.14.58-7.75.58v4.24h35.96v-4.24c-3.51,0-6.07-.19-7.68-.58-1.61-.39-2.61-1.17-3-2.34-.39-1.17-.58-2.92-.58-5.26v-35.09h47.08v35.09c0,2.34-.2,4.09-.58,5.26-.39,1.17-1.37,1.95-2.92,2.34-1.56.39-4.14.58-7.75.58v4.24h35.96v-4.24c-3.51,0-6.04-.19-7.6-.58-1.56-.39-2.56-1.17-3-2.34-.44-1.17-.66-2.92-.66-5.26V61.84c0-2.34.19-4.09.58-5.26.39-1.17,1.39-1.97,3-2.41,1.61-.44,4.17-.66,7.68-.66v-4.24h-35.96v4.24Z"/>
    <path class="st1" d="M872.56,53.51c3.6,0,6.19.22,7.75.66,1.56.44,2.53,1.29,2.92,2.56.39,1.27.58,3.17.58,5.7v70.32c0,2.44-.2,4.29-.58,5.56-.39,1.27-1.37,2.12-2.92,2.56-1.56.44-4.14.66-7.75.66v4.24h35.96v-4.24c-3.51,0-6.07-.22-7.68-.66-1.61-.44-2.61-1.29-3-2.56-.39-1.27-.58-3.12-.58-5.56V62.42c0-2.53.19-4.43.58-5.7.39-1.27,1.39-2.12,3-2.56,1.61-.44,4.17-.66,7.68-.66v-4.24h-35.96v4.24Z"/>
    <path class="st1" d="M982.65,53.51h5.7c4.97,0,7.46,2.34,7.46,7.02v63.6h-.29l-49.42-74.85h-24.56v4.24c3.51,0,6.07.2,7.68.58,1.61.39,2.63,1.17,3.07,2.34.44,1.17.66,2.97.66,5.41v72.08c0,5.07-2.29,7.6-6.87,7.6h-4.39v4.24h29.97v-4.24h-5.85c-2.63,0-4.51-.58-5.63-1.75-1.12-1.17-1.68-3.12-1.68-5.85V63.59h.29l55.41,83.04h7.16V60.52c0-4.68,2.24-7.02,6.73-7.02h4.39v-4.24h-29.82v4.24Z"/>
    <path class="st1" d="M1050.92,56.72c.39-1.27,1.39-2.12,3-2.56,1.61-.44,4.17-.66,7.68-.66v-4.24h-35.96v4.24c3.6,0,6.19.22,7.75.66,1.56.44,2.53,1.29,2.92,2.56.39,1.27.58,3.17.58,5.7v70.32c0,2.44-.2,4.29-.58,5.56-.39,1.27-1.37,2.12-2.92,2.56-1.56.44-4.14.66-7.75.66v4.24h35.96v-4.24c-3.51,0-6.07-.22-7.68-.66-1.61-.44-2.61-1.29-3-2.56-.39-1.27-.58-3.12-.58-5.56V62.42c0-2.53.19-4.43.58-5.7Z"/>
  </g>
  <rect class="st0" width="1111.6" height="195.76"/>
</svg>